<?xml version="1.0" encoding="utf-8"?>
<!-- Generator: Adobe Illustrator 16.0.0, SVG Export Plug-In . SVG Version: 6.00 Build 0)  -->
<!DOCTYPE svg PUBLIC "-//W3C//DTD SVG 1.1//EN" "http://www.w3.org/Graphics/SVG/1.1/DTD/svg11.dtd">
<svg version="1.1" id="Layer_1" xmlns="http://www.w3.org/2000/svg" xmlns:xlink="http://www.w3.org/1999/xlink" x="0px" y="0px"
	 width="768px" height="1024px" viewBox="0 0 768 1024" enable-background="new 0 0 768 1024" xml:space="preserve">
<g>
	<path fill="#B1A679" d="M132.188,415.628l18.482-1.442l-0.896,8.87c-0.416,5.014,0.511,8.807,2.78,11.379
		c2.267,2.573,5.312,4.052,9.133,4.438c4.002,0.404,7.271-0.552,9.803-2.871c2.529-2.316,4.014-5.613,4.445-9.891l6.753-66.873
		l18.833,1.902l-6.753,66.873c-0.441,4.367-1.607,8.409-3.499,12.123c-1.892,3.717-4.373,6.89-7.439,9.521
		c-3.072,2.632-6.624,4.594-10.66,5.886c-4.037,1.292-8.422,1.7-13.151,1.222c-4.823-0.487-9.092-1.676-12.807-3.568
		c-3.716-1.892-6.82-4.364-9.314-7.42c-2.497-3.054-4.298-6.591-5.408-10.61c-1.111-4.018-1.428-8.392-0.95-13.124L132.188,415.628z
		"/>
	<path fill="#B1A679" d="M212.051,411.146c0.79-7.824,2.865-14.714,6.224-20.671c3.358-5.956,7.532-10.89,12.523-14.798
		c4.989-3.907,10.604-6.719,16.844-8.432s12.635-2.24,19.185-1.578c6.551,0.662,12.733,2.458,18.551,5.389
		c5.815,2.931,10.777,6.81,14.887,11.636c4.108,4.827,7.212,10.495,9.312,17.002c2.1,6.508,2.755,13.674,1.965,21.498
		c-0.791,7.826-2.862,14.694-6.216,20.604c-3.354,5.913-7.527,10.821-12.517,14.729c-4.992,3.908-10.628,6.717-16.912,8.426
		c-6.286,1.709-12.703,2.233-19.254,1.572c-6.55-0.662-12.711-2.456-18.481-5.382c-5.771-2.926-10.711-6.803-14.818-11.63
		c-4.11-4.826-7.214-10.469-9.319-16.933C211.918,426.115,211.26,418.972,212.051,411.146z M231.581,412.98
		c-0.551,5.459-0.168,10.302,1.152,14.524c1.318,4.224,3.279,7.8,5.879,10.727c2.6,2.93,5.628,5.234,9.091,6.916
		c3.459,1.683,7.054,2.711,10.786,3.088c3.73,0.376,7.481,0.09,11.254-0.862c3.772-0.951,7.226-2.601,10.357-4.952
		c3.133-2.348,5.767-5.46,7.905-9.335c2.135-3.873,3.482-8.541,4.033-14s0.165-10.3-1.153-14.523
		c-1.321-4.222-3.28-7.797-5.879-10.727c-2.599-2.927-5.653-5.235-9.159-6.922c-3.506-1.686-7.125-2.718-10.855-3.095
		c-3.731-0.377-7.459-0.085-11.185,0.87c-3.729,0.957-7.157,2.61-10.29,4.958c-3.133,2.351-5.77,5.462-7.905,9.335
		C233.476,402.855,232.132,407.521,231.581,412.98z"/>
	<path fill="#B1A679" d="M377.858,407.484c-0.134-1.392-0.463-2.918-0.984-4.58c-0.522-1.66-1.395-3.244-2.623-4.746
		c-1.228-1.503-2.866-2.816-4.911-3.943c-2.047-1.124-4.617-1.845-7.708-2.158c-2.275-0.229-4.38-0.097-6.313,0.397
		c-1.935,0.494-3.62,1.244-5.052,2.248c-1.436,1.006-2.59,2.198-3.464,3.579c-0.875,1.383-1.394,2.893-1.559,4.53
		c-0.267,2.64,0.364,5.023,1.896,7.154c1.53,2.131,4.035,3.739,7.509,4.825l13.25,3.958c4.284,1.259,8.017,2.97,11.2,5.129
		c3.182,2.161,5.784,4.605,7.808,7.336c2.021,2.733,3.468,5.705,4.338,8.917c0.869,3.213,1.136,6.504,0.796,9.869
		c-0.377,3.731-1.521,7.315-3.43,10.751c-1.911,3.439-4.484,6.396-7.721,8.872c-3.237,2.478-7.104,4.362-11.599,5.653
		c-4.497,1.291-9.566,1.653-15.207,1.084c-6.461-0.652-11.916-2.147-16.367-4.479c-4.453-2.333-8.101-5.114-10.945-8.344
		c-2.845-3.227-4.905-6.721-6.18-10.481c-1.276-3.759-1.921-7.384-1.935-10.88l17.938-2.876c-0.058,2.385,0.282,4.716,1.017,6.996
		c0.735,2.28,1.88,4.35,3.44,6.207c1.557,1.859,3.561,3.416,6.007,4.674c2.445,1.259,5.397,2.061,8.855,2.41
		c5.096,0.515,9.098-0.206,12.007-2.165c2.908-1.958,4.539-4.664,4.888-8.123c0.285-2.819-0.472-5.355-2.267-7.604
		c-1.794-2.25-4.565-3.929-8.313-5.045l-13.236-4.094c-7.578-2.327-13.423-6.112-17.534-11.352
		c-4.114-5.241-5.797-11.546-5.053-18.916c0.432-4.275,1.722-8.167,3.867-11.673c2.146-3.506,4.904-6.468,8.273-8.884
		c3.367-2.417,7.18-4.191,11.429-5.326c4.251-1.132,8.649-1.47,13.2-1.011c5.821,0.588,10.723,1.888,14.703,3.897
		c3.978,2.011,7.209,4.381,9.69,7.113s4.323,5.654,5.525,8.761c1.203,3.109,1.94,6.055,2.211,8.84L377.858,407.484z"/>
	<path fill="#B1A679" d="M466.2,485.614l4.052-40.124l-42.171-4.258l-4.052,40.124l-18.834-1.902l9.771-96.761l18.834,1.902
		l-3.927,38.895l42.171,4.258l3.927-38.895l18.971,1.916l-9.771,96.761L466.2,485.614z"/>
</g>
<g>
	<path fill="#B1A679" d="M402.397,609.26L387.85,619.8l-5.555,26.445l-18.525-3.891l19.989-95.177l18.526,3.891l-9.05,43.092
		l47.174-35.085l24.298,5.104l-46.434,33.559l26.713,61.675l-23.224-4.878L402.397,609.26z"/>
	<path fill="#B1A679" d="M491.654,671.456c-5.103-1.071-9.707-2.834-13.817-5.285c-4.111-2.451-7.48-5.541-10.107-9.271
		c-2.629-3.729-4.434-8.032-5.417-12.912c-0.986-4.878-0.867-10.226,0.355-16.044l12.912-61.482l18.525,3.892l-12.631,60.14
		c-1.315,6.265-0.701,11.346,1.844,15.244c2.546,3.898,6.592,6.43,12.143,7.596c5.638,1.185,10.405,0.504,14.304-2.041
		s6.506-6.95,7.821-13.215l12.631-60.14l18.525,3.891L535.83,643.31c-1.223,5.819-3.267,10.763-6.129,14.832
		c-2.866,4.071-6.25,7.285-10.155,9.641c-3.906,2.357-8.256,3.827-13.049,4.408C501.702,672.771,496.755,672.527,491.654,671.456z"
		/>
	<path fill="#B1A679" d="M611.311,694.344l-29.045-76.602l-14.182,67.522l-18.525-3.891l19.989-95.177l23.09,4.85l26.379,71.275
		l13.223-62.958l18.525,3.891l-19.989,95.177L611.311,694.344z"/>
</g>
</svg>
