<?xml version="1.0" encoding="utf-8"?>
<!-- Generator: Adobe Illustrator 16.0.0, SVG Export Plug-In . SVG Version: 6.00 Build 0)  -->
<!DOCTYPE svg PUBLIC "-//W3C//DTD SVG 1.1//EN" "http://www.w3.org/Graphics/SVG/1.1/DTD/svg11.dtd">
<svg version="1.1" id="Layer_1" xmlns="http://www.w3.org/2000/svg" xmlns:xlink="http://www.w3.org/1999/xlink" x="0px" y="0px"
	 width="768px" height="1024px" viewBox="0 0 768 1024" enable-background="new 0 0 768 1024" xml:space="preserve">
<g>
	<path fill="#B1A679" d="M122.249,325.13l18.453,1.785l-2.421,8.581c-1.279,4.866-1.024,8.762,0.765,11.689
		c1.786,2.927,4.528,4.912,8.225,5.955c3.871,1.093,7.256,0.717,10.153-1.126c2.892-1.842,4.926-4.833,6.094-8.97l18.249-64.688
		l18.218,5.14l-18.25,64.688c-1.191,4.224-3.042,8.002-5.549,11.332c-2.508,3.332-5.502,6.028-8.978,8.085
		c-3.482,2.06-7.321,3.376-11.52,3.949c-4.2,0.571-8.589,0.214-13.164-1.078c-4.666-1.316-8.664-3.228-11.994-5.735
		c-3.331-2.508-5.96-5.48-7.885-8.924c-1.929-3.441-3.09-7.236-3.486-11.387c-0.397-4.149,0.049-8.512,1.341-13.09L122.249,325.13z"
		/>
	<path fill="#B1A679" d="M201.678,334.568c2.135-7.569,5.374-13.995,9.714-19.279c4.341-5.284,9.307-9.418,14.9-12.401
		c5.591-2.983,11.609-4.778,18.051-5.382c6.442-0.605,12.832-0.015,19.167,1.773c6.337,1.788,12.114,4.629,17.335,8.524
		c5.219,3.895,9.432,8.576,12.643,14.042c3.208,5.467,5.282,11.586,6.222,18.36c0.94,6.774,0.342,13.944-1.793,21.513
		c-2.136,7.57-5.367,13.975-9.696,19.213c-4.329,5.241-9.29,9.352-14.882,12.335c-5.593,2.982-11.632,4.771-18.117,5.365
		c-6.487,0.592-12.898-0.004-19.234-1.792c-6.336-1.787-12.092-4.623-17.268-8.506c-5.176-3.883-9.369-8.558-12.577-14.023
		c-3.21-5.466-5.289-11.563-6.241-18.293C198.951,349.288,199.542,342.139,201.678,334.568z M220.594,339.762
		c-1.489,5.281-1.952,10.116-1.384,14.504c0.565,4.388,1.877,8.25,3.929,11.583c2.052,3.337,4.635,6.132,7.753,8.389
		c3.115,2.256,6.477,3.894,10.086,4.912c3.609,1.018,7.353,1.385,11.233,1.103c3.88-0.282,7.567-1.308,11.059-3.08
		c3.493-1.769,6.627-4.377,9.405-7.823c2.774-3.444,4.911-7.808,6.4-13.088c1.49-5.28,1.949-10.115,1.383-14.503
		c-0.568-4.387-1.877-8.249-3.93-11.584c-2.052-3.334-4.659-6.136-7.819-8.406c-3.161-2.268-6.545-3.912-10.153-4.931
		c-3.61-1.019-7.332-1.378-11.167-1.084c-3.839,0.296-7.502,1.329-10.994,3.098c-3.493,1.772-6.629,4.379-9.404,7.823
		C224.216,330.119,222.084,334.482,220.594,339.762z"/>
	<path fill="#B1A679" d="M365.607,359.722c0.109-1.395,0.05-2.955-0.174-4.681c-0.227-1.726-0.812-3.437-1.76-5.129
		c-0.949-1.693-2.334-3.271-4.152-4.734c-1.821-1.462-4.227-2.619-7.218-3.462c-2.201-0.621-4.297-0.855-6.286-0.704
		c-1.992,0.151-3.781,0.597-5.366,1.337c-1.588,0.741-2.932,1.715-4.033,2.924c-1.102,1.21-1.874,2.606-2.321,4.191
		c-0.72,2.553-0.513,5.01,0.626,7.375c1.137,2.364,3.325,4.382,6.559,6.054l12.362,6.196c4.001,1.983,7.381,4.315,10.141,6.995
		c2.758,2.679,4.897,5.539,6.417,8.579c1.516,3.042,2.426,6.22,2.726,9.535c0.299,3.314-0.01,6.602-0.929,9.857
		c-1.018,3.609-2.766,6.94-5.242,9.994c-2.479,3.055-5.525,5.521-9.142,7.398c-3.618,1.878-7.753,3.063-12.404,3.556
		c-4.653,0.491-9.708-0.031-15.164-1.57c-6.25-1.764-11.362-4.182-15.342-7.25c-3.981-3.069-7.091-6.442-9.333-10.116
		c-2.241-3.672-3.666-7.469-4.268-11.395c-0.604-3.923-0.611-7.605-0.019-11.05l18.165,0.278c-0.471,2.339-0.541,4.693-0.211,7.066
		c0.328,2.374,1.096,4.61,2.311,6.71c1.21,2.101,2.915,3.981,5.105,5.645c2.188,1.665,4.958,2.966,8.303,3.909
		c4.93,1.391,8.996,1.375,12.201-0.049c3.204-1.424,5.278-3.807,6.223-7.153c0.769-2.728,0.463-5.356-0.914-7.882
		c-1.376-2.527-3.815-4.662-7.312-6.411l-12.326-6.328c-7.06-3.606-12.159-8.347-15.299-14.221
		c-3.142-5.875-3.707-12.377-1.695-19.506c1.167-4.136,3.112-7.745,5.833-10.825c2.722-3.081,5.951-5.519,9.689-7.314
		c3.735-1.797,7.798-2.882,12.179-3.263c4.383-0.378,8.773,0.052,13.175,1.294c5.631,1.588,10.233,3.72,13.804,6.389
		c3.569,2.671,6.339,5.564,8.311,8.687c1.969,3.122,3.276,6.318,3.921,9.587c0.646,3.271,0.861,6.3,0.644,9.089L365.607,359.722z"/>
	<path fill="#B1A679" d="M439.059,451.989l10.95-38.812l-40.794-11.509l-10.949,38.812l-18.218-5.139l26.406-93.6l18.218,5.14
		l-10.613,37.625l40.793,11.508l10.613-37.625l18.352,5.177l-26.406,93.6L439.059,451.989z"/>
</g>
<g>
	<path fill="#B1A679" d="M379.15,676.849L367.958,690.9l1.732,26.967l-18.89,1.214l-6.239-97.053l18.891-1.214l2.825,43.941
		l36.051-46.439l24.776-1.593l-35.746,44.771l42.259,52.265l-23.681,1.521L379.15,676.849z"/>
	<path fill="#B1A679" d="M481.806,712.86c-5.203,0.334-10.11-0.13-14.728-1.39c-4.617-1.261-8.691-3.336-12.222-6.225
		c-3.532-2.888-6.423-6.551-8.679-10.989c-2.257-4.436-3.574-9.619-3.955-15.553l-4.03-62.694l18.891-1.213l3.941,61.325
		c0.412,6.388,2.365,11.119,5.861,14.192c3.497,3.074,8.073,4.43,13.733,4.065c5.749-0.369,10.159-2.302,13.233-5.798
		s4.406-8.439,3.996-14.827l-3.942-61.325l18.891-1.215l4.03,62.693c0.381,5.935-0.265,11.245-1.931,15.932
		c-1.672,4.69-4.07,8.693-7.202,12.01c-3.132,3.317-6.929,5.898-11.392,7.742C491.839,711.436,487.007,712.525,481.806,712.86z"/>
	<path fill="#B1A679" d="M603.22,702.856l-48.504-66.021l4.426,68.854l-18.891,1.215l-6.238-97.053l23.545-1.514l44.509,61.604
		l-4.127-64.199l18.892-1.214l6.238,97.053L603.22,702.856z"/>
</g>
</svg>
