<?xml version="1.0" encoding="utf-8"?>
<!-- Generator: Adobe Illustrator 16.0.0, SVG Export Plug-In . SVG Version: 6.00 Build 0)  -->
<!DOCTYPE svg PUBLIC "-//W3C//DTD SVG 1.1//EN" "http://www.w3.org/Graphics/SVG/1.1/DTD/svg11.dtd">
<svg version="1.1" id="Layer_1" xmlns="http://www.w3.org/2000/svg" xmlns:xlink="http://www.w3.org/1999/xlink" x="0px" y="0px"
	 width="768px" height="1024px" viewBox="0 0 768 1024" enable-background="new 0 0 768 1024" xml:space="preserve">
<g>
	<path fill="#B1A679" d="M178.674,553.026l17.286-6.7l1.694,8.753c1.045,4.921,3.023,8.287,5.938,10.098
		c2.911,1.812,6.253,2.353,10.023,1.622c3.949-0.764,6.804-2.621,8.562-5.57c1.756-2.945,2.229-6.531,1.411-10.752l-12.777-65.987
		l18.584-3.598l12.776,65.987c0.834,4.309,0.88,8.516,0.138,12.617c-0.742,4.104-2.205,7.857-4.385,11.258
		c-2.185,3.405-5.022,6.307-8.515,8.705c-3.495,2.398-7.577,4.053-12.244,4.955c-4.759,0.922-9.19,1.012-13.292,0.269
		c-4.103-0.743-7.788-2.216-11.055-4.427c-3.27-2.206-6.013-5.074-8.233-8.604c-2.22-3.528-3.782-7.626-4.686-12.296
		L178.674,553.026z"/>
	<path fill="#B1A679" d="M253.869,525.752c-1.495-7.721-1.491-14.917,0.012-21.588c1.502-6.671,4.08-12.597,7.735-17.776
		c3.653-5.178,8.223-9.486,13.705-12.922c5.482-3.437,11.456-5.781,17.919-7.032c6.464-1.251,12.902-1.311,19.316-0.178
		c6.413,1.133,12.281,3.421,17.606,6.86c5.323,3.441,9.927,7.976,13.811,13.604c3.884,5.628,6.573,12.302,8.068,20.023
		c1.495,7.722,1.487,14.896-0.024,21.521c-1.511,6.628-4.094,12.529-7.749,17.708c-3.656,5.179-8.246,9.491-13.772,12.937
		c-5.529,3.445-11.523,5.794-17.987,7.045c-6.463,1.252-12.88,1.307-19.249,0.164c-6.369-1.142-12.216-3.433-17.538-6.873
		c-5.325-3.439-9.922-7.951-13.798-13.535C258.05,540.126,255.364,533.475,253.869,525.752z M273.101,521.889
		c1.043,5.387,2.803,9.914,5.283,13.578c2.478,3.665,5.385,6.525,8.717,8.58c3.333,2.059,6.897,3.394,10.696,4.008
		c3.797,0.615,7.536,0.566,11.218-0.146c3.681-0.713,7.191-2.067,10.53-4.064c3.339-1.996,6.171-4.57,8.494-7.723
		c2.325-3.15,3.952-6.889,4.885-11.216c0.93-4.323,0.877-9.182-0.166-14.568s-2.806-9.912-5.284-13.577
		c-2.48-3.663-5.385-6.524-8.718-8.582c-3.332-2.056-6.92-3.387-10.763-3.994c-3.843-0.605-7.605-0.553-11.286,0.16
		c-3.682,0.713-7.168,2.064-10.462,4.051c-3.296,1.99-6.104,4.56-8.428,7.709c-2.323,3.153-3.953,6.892-4.884,11.215
		C272.002,511.646,272.058,516.502,273.101,521.889z"/>
	<path fill="#B1A679" d="M411.609,474.531c-0.529-1.295-1.283-2.662-2.26-4.103c-0.979-1.44-2.27-2.705-3.878-3.791
		c-1.608-1.086-3.556-1.873-5.837-2.363c-2.284-0.487-4.953-0.438-8.004,0.152c-2.245,0.435-4.223,1.168-5.932,2.197
		c-1.712,1.03-3.109,2.233-4.192,3.606c-1.085,1.376-1.848,2.851-2.288,4.425c-0.44,1.577-0.502,3.171-0.189,4.787
		c0.504,2.604,1.794,4.706,3.875,6.306c2.078,1.601,4.939,2.42,8.58,2.46l13.828-0.022c4.466-0.027,8.533,0.537,12.203,1.689
		c3.668,1.153,6.864,2.746,9.588,4.779c2.722,2.036,4.963,4.466,6.721,7.292c1.757,2.827,2.959,5.902,3.602,9.223
		c0.713,3.682,0.649,7.443-0.19,11.284c-0.841,3.844-2.454,7.415-4.841,10.718c-2.388,3.305-5.549,6.222-9.481,8.752
		c-3.936,2.53-8.686,4.336-14.251,5.414c-6.376,1.234-12.029,1.372-16.964,0.42c-4.936-0.952-9.23-2.566-12.883-4.841
		c-3.653-2.272-6.632-5.024-8.935-8.26c-2.304-3.232-3.965-6.519-4.984-9.862l16.352-7.917c0.631,2.302,1.627,4.436,2.987,6.407
		c1.36,1.973,3.052,3.625,5.081,4.955c2.025,1.332,4.393,2.246,7.098,2.747c2.703,0.503,5.762,0.421,9.174-0.24
		c5.029-0.974,8.654-2.815,10.877-5.528c2.222-2.712,3.004-5.773,2.344-9.187c-0.539-2.782-1.994-4.993-4.359-6.63
		c-2.365-1.638-5.503-2.449-9.413-2.439l-13.854-0.111c-7.927-0.048-14.614-1.991-20.059-5.826
		c-5.448-3.836-8.875-9.39-10.283-16.662c-0.816-4.219-0.702-8.317,0.344-12.292c1.047-3.975,2.835-7.605,5.367-10.889
		c2.529-3.284,5.67-6.08,9.413-8.389c3.745-2.308,7.86-3.897,12.351-4.767c5.744-1.112,10.813-1.277,15.203-0.499
		c4.389,0.781,8.164,2.121,11.328,4.024c3.162,1.903,5.767,4.17,7.812,6.801c2.047,2.631,3.601,5.24,4.661,7.83L411.609,474.531z"/>
	<path fill="#B1A679" d="M518.697,523.934l-7.665-39.592l-41.613,8.058l7.666,39.592l-18.584,3.599l-18.487-95.479l18.584-3.598
		l7.433,38.379l41.612-8.057l-7.433-38.379l18.72-3.625l18.487,95.479L518.697,523.934z"/>
</g>
<g>
	<path fill="#B1A679" d="M401.641,627.72l-12.491,12.911l-0.867,27.009l-18.919-0.607l3.118-97.203l18.92,0.607l-1.411,44.009
		l40.347-42.76l24.815,0.796l-39.884,41.128l37.04,56.084l-23.718-0.761L401.641,627.72z"/>
	<path fill="#B1A679" d="M500.36,673.431c-5.211-0.167-10.052-1.101-14.526-2.799s-8.33-4.155-11.566-7.37
		c-3.238-3.214-5.764-7.138-7.582-11.772c-1.82-4.632-2.634-9.918-2.442-15.86l2.014-62.792l18.92,0.608l-1.971,61.42
		c-0.204,6.397,1.285,11.295,4.47,14.69c3.186,3.396,7.61,5.185,13.279,5.366c5.758,0.186,10.334-1.314,13.729-4.499
		c3.396-3.185,5.197-7.977,5.402-14.375l1.97-61.42l18.92,0.606l-2.014,62.791c-0.191,5.943-1.344,11.167-3.453,15.672
		c-2.114,4.508-4.887,8.262-8.322,11.262c-3.437,3.001-7.464,5.205-12.083,6.611C510.483,672.977,505.569,673.598,500.36,673.431z"
		/>
	<path fill="#B1A679" d="M622.174,675.143l-41.935-70.377l-2.212,68.96l-18.92-0.606l3.118-97.203l23.581,0.757l38.383,65.596
		l2.062-64.299l18.92,0.607l-3.118,97.203L622.174,675.143z"/>
</g>
</svg>
